<?xml version="1.0" encoding="utf-8"?>
<!-- Generator: Adobe Illustrator 24.2.1, SVG Export Plug-In . SVG Version: 6.00 Build 0)  -->
<svg version="1.1" id="OBJECTS" xmlns="http://www.w3.org/2000/svg" xmlns:xlink="http://www.w3.org/1999/xlink" x="0px" y="0px"
	 viewBox="0 0 500 500" style="enable-background:new 0 0 500 500;" xml:space="preserve">
<style type="text/css">
	.st0{fill:#F2F2F2;}
	.st1{fill:#FAD6CA;}
	.st2{fill:#EEA48B;}
	.st3{fill:#ED967E;}
	.st4{fill:#AFAC39;}
	.st5{fill:#C0DCDD;}
	.st6{fill:#516638;}
	.st7{fill:#587040;}
	.st8{fill:#F9C8BB;}
	.st9{fill:#283813;}
	.st10{fill:#FFFFFF;}
	.st11{fill:#F7B509;}
</style>
<path class="st0" d="M316.65,356.85c5.62,0.08,11.21,0.55,16.53,2.27c15,4.84,15.1,19.28,32.38,19.08
	c21.36-0.24,43.34-2.3,64.38,2.23c7.49,1.61,15.6,4.75,18.8,11.72c3.85,8.4-1.58,18.59-9.29,23.69
	c-19.13,12.64-47.28,12.12-69.24,13.61c-18.17,1.24-36.37,1.39-54.57,1.92c-25.18,0.73-49.09-6.07-74-6.43
	c-24.25-0.36-47.53,7.69-71.47,10.1c-27.6,2.78-56.48,5.32-83.75-1.13c-9.26-2.19-18.56-5.62-25.43-12.2
	c-10.76-10.3-13.89-28.34-6.36-41.38c9.3-16.12,27.59-17.04,44.18-17.61c70.07-2.38,140.1-4.4,210.2-5.79
	C311.54,356.87,314.1,356.82,316.65,356.85z"/>
<g>
	<path class="st1" d="M320.24,311.07c0,0,30.47,88.12,34.68,99.83c0,0,3.75,0,7.5-1.41L334.3,302.63
		C334.3,302.63,325.39,302.63,320.24,311.07z"/>
	<path class="st1" d="M203.06,322.34c0,0-30.47,88.12-34.68,99.83c0,0-3.75,0-7.5-1.41L189,313.9
		C189,313.9,197.91,313.9,203.06,322.34z"/>
	<path class="st1" d="M149.9,275.93c0,0-30.47,88.12-34.68,99.83c0,0-3.75,0-7.5-1.41l28.12-106.86
		C135.84,267.5,144.75,267.5,149.9,275.93z"/>
	<path class="st1" d="M256.96,274.98c0,0,30.47,88.12,34.68,99.83c0,0,3.75,0,7.5-1.41l-28.12-106.86
		C271.02,266.54,262.12,266.54,256.96,274.98z"/>
	<g>
		<path class="st2" d="M317.01,134.66c12.05-1.38,24.87-0.87,35.38,5.18c13.96,8.03,21.25,24.5,22.74,40.53
			c1.49,16.03-1.89,32.06-4.48,47.95c-2.69,16.48-4.58,33.24-10.23,48.96c-5.65,15.71-15.63,30.62-30.48,38.25
			c-6.79,3.49-14.3,5.32-21.78,6.9c-40.04,8.47-81.27,10.62-122.14,8.49c-14.01-0.73-28.34-2.05-41.06-7.98
			c-12.72-5.93-23.69-17.35-25.45-31.27c-2.47-19.58,13.83-37.21,32.07-44.75c18.24-7.54,38.51-8,57.86-11.88
			c19.35-3.88,39.62-12.73,48.32-30.45c7.82-15.91,4.57-35.36,13.33-50.82C279.23,139.43,302.05,136.38,317.01,134.66z"/>
		<path class="st3" d="M342.9,177.1c-11.26,3.33-19.2,12.63-24.1,22.94c-5.91,12.43-7.01,26.39-8.49,39.88
			c-0.82,7.5-1.73,15.05-3.75,22.34c-1.67,6.04-4.26,12.11-9.01,16.38c-5.37,4.83-12.95,5.83-19.77,7.12
			c-7.86,1.49-15.73,2.95-23.63,4.26c-17.82,2.94-35.84,4.9-53.92,4.3c-3.02-0.1-3.03,4.62,0,4.7c16.03,0.45,31.99-1.15,47.82-3.53
			c7.91-1.19,15.8-2.59,23.66-4.06c7.24-1.35,14.95-2.19,21.77-5.08c12.74-5.41,17.13-19.26,19.32-31.83
			c2.57-14.73,2.46-30,6.85-44.39c3.93-12.87,11.52-25.09,24.2-30.74C345.17,178.8,344.24,176.7,342.9,177.1z"/>
	</g>
</g>
<g>
	<g>
		<g>
			<g>
				<path class="st4" d="M98.82,330.8c-0.28,0.39-0.71,0.66-1.12,0.92c-2.57,1.62-5.14,3.25-7.71,4.87
					c-1.26,0.8-2.52,1.59-3.78,2.38c-1.31,0.83-2.64,1.68-4.07,2.33c-0.11,0.05-0.23,0.1-0.35,0.15c-0.3,0.14-0.6,0.26-0.92,0.39
					c-0.34,0.11-0.69,0.23-1.03,0.33c-0.4,0.11-0.78,0.21-1.18,0.28c-4.51,0.91-9.26-0.11-13.82-1.6c-1.05-0.34-2.09-0.71-3.1-1.07
					c-0.39-0.15-0.78-0.29-1.16-0.44c-0.35-0.12-0.7-0.26-1.05-0.4c-1.16-0.43-2.31-0.85-3.48-1.29c-0.68-0.25-1.36-0.51-2.05-0.76
					c-0.86-0.32-1.74-0.65-2.6-1c-0.74-0.3-1.46-0.62-2.15-0.98c-0.98-0.49-1.91-1.05-2.77-1.71c-2.18-1.69-3.79-4.19-3.56-6.79
					c0.26-2.83,2.67-5.2,5.52-6.38c0.91-0.39,1.86-0.66,2.83-0.85c0.68-0.15,1.36-0.24,2.05-0.31c0.88-0.09,1.79-0.16,2.7-0.18
					c0.52-0.01,1.05-0.02,1.57-0.02c0.52,0,1.03,0,1.55,0.01c1.12,0.01,2.25,0.04,3.37,0.06c0.85,0.01,1.7,0.02,2.55,0.02
					c1.5,0,3-0.04,4.5-0.16c0.26-0.02,0.51-0.04,0.77-0.06c0.45-0.04,0.89-0.09,1.34-0.16c0.32-0.04,0.65-0.08,0.97-0.15
					c0.44-0.06,0.87-0.15,1.3-0.24c1.16-0.24,2.28-0.56,3.38-0.97c0.17-0.06,0.33-0.12,0.49-0.21c1.58-0.73,2.8-1.96,4.28-2.62
					c3.55-1.57,8.32,0.95,10.71,3.29c2.81,2.75,4.35,6.34,5.84,9.85C99.11,328.47,99.57,329.8,98.82,330.8z"/>
				<path class="st5" d="M59.53,338.94c-1.16-0.43-2.31-0.85-3.48-1.29c-1.16-6.14-0.85-12.57-0.04-18.95
					c0.52-0.01,1.05-0.02,1.57-0.02c0.52,0,1.03,0,1.55,0.01C58.23,325.52,57.91,332.42,59.53,338.94z"/>
				<path class="st5" d="M81.78,341.44c-0.3,0.14-0.6,0.26-0.92,0.39c-0.34,0.11-0.69,0.23-1.03,0.33c-0.4,0.11-0.78,0.21-1.18,0.28
					c-2.27-3.25-4.18-6.72-5.69-10.46c-1.36-3.37-2.38-6.87-3.01-10.45c-0.05-0.32-0.24-1.52-0.41-2.92
					c0.26-0.02,0.51-0.04,0.77-0.06c0.45-0.04,0.89-0.09,1.34-0.16c0.32-0.04,0.65-0.08,0.97-0.15c0.04,0.55,0.1,1.09,0.19,1.63
					c0.43,2.76,1.1,5.49,1.99,8.13C76.45,332.87,78.8,337.34,81.78,341.44z"/>
			</g>
			<path class="st6" d="M233.38,283.56c-20.46,5.36-42.02,3.52-63.19,3.92c-2.85,0.05-5.72,0.15-8.49,0.8
				c-5.32,1.25-10.54,3.71-14.39,7.55c-18.7,18.67-15.61,16.06-56.26,40.89c-2.87,1.76-13.61-19.39-13.38-20.45
				c0.2-0.94,43.61-36.98,47.61-40.36c4.35-3.66,11.18-7.96,15.13-12.03c7.28-7.49,18.42-12.47,26.45-19.18
				c12.72-10.62,26.1-21.58,42.33-25.31c3.74-0.86,7.65-1.31,11.4-0.53c2.76,0.57,5.33,1.79,7.86,2.99
				c7.59,3.61,15.46,7.5,20.49,14.17c3.47,4.61,5.22,10.14,6.2,15.74c0.7,4,2.77,9.82,2.38,13.84
				C256.6,275.54,241.52,281.42,233.38,283.56z"/>
		</g>
		<g>
			<path class="st4" d="M160.38,375.06c-0.58,2.26-1.22,4.51-1.9,6.74c-0.29,0.95-0.59,1.9-0.9,2.85
				c-1.51,4.62-3.24,9.19-5.17,13.68c-0.02,0.05-0.04,0.09-0.06,0.14c-0.34,0.78-0.68,1.56-1.1,2.3c-0.53,0.95-1.18,1.83-2.04,2.54
				c-2.63,2.16-6.56,2.15-10.05,1.79c-4.6-0.48-9.95-1.97-11.33-6.04c-0.79-2.34,0.02-4.85,0.9-7.17c0.02-0.07,0.05-0.13,0.08-0.2
				c0.26-0.67,0.52-1.34,0.78-2c1.46-3.68,3.02-7.32,4.68-10.93c0.38-0.83,0.77-1.66,1.16-2.48c1.1-2.31,2.25-4.61,3.42-6.89
				c3.21-6.19,6.51-13.13,15.52-9.66c3.59,1.38,6.28,4.6,6.82,8.17C161.54,370.29,160.99,372.71,160.38,375.06z"/>
			<path class="st7" d="M197.53,205.25c-8.3-0.51-16.98,2.22-22.68,8.19c-5.18,5.43-7.48,12.86-9.53,20.03
				c-12.24,42.93-21.01,86.82-26.21,131.11c-0.1,0.88-0.2,1.81,0.19,2.61c0.55,1.13,1.87,1.63,3.08,2
				c5.37,1.64,10.94,2.62,16.56,2.92c0.75,0.04,1.55,0.05,2.17-0.35c0.65-0.42,0.95-1.19,1.21-1.9
				c14.5-39.31,29.05-78.76,38.22-119.6c0.31-1.4,0.67-2.88,1.69-3.89c0.88-0.86,2.11-1.25,3.29-1.61
				c6.8-2.05,13.64-6.67,20.36-8.94c0.91-0.31-10.81-18.56-12.01-20.1C209.75,210.47,204.53,205.68,197.53,205.25z"/>
		</g>
	</g>
	<g>
		<g>
			<path class="st8" d="M286.4,110.69c0.53,0.67,1.15,1.38,2,1.49c1.16,0.15,2.15-0.99,2.3-2.14c0.15-1.16-0.31-2.29-0.77-3.37
				c2.55,1.93,5.37,3.51,8.36,4.68c2.19,0.86,4.85,1.44,6.76,0.06c1.33-0.96,1.93-2.62,2.35-4.21c0.83-3.1,1.28-6.3,1.35-9.51
				c0.01-0.65,0.01-1.31-0.21-1.91c-0.28-0.75-0.86-1.35-1.47-1.88c-1.74-1.52-3.79-2.7-5.98-3.43c-1.99-0.67-4.08-0.98-6.16-1.27
				c-3.83-0.54-7.66-1.05-11.49-1.53c-0.52-0.06-3.65,11.86-3.81,13.02c-0.26,1.88,1.12,2.94,2.25,4.37
				C283.39,106.93,284.89,108.81,286.4,110.69z"/>
			<path class="st5" d="M382.67,140.56c-1.25,2.57-3.17,4.74-5.06,6.87c-16.38,18.45-31.67,39.77-54.09,50.05
				c-1.82,0.83-3.18,2.4-4.5,3.9c-10.84,12.34-22.92,16.82-36.83,25.55c-1.51,0.95-3.05,1.87-4.27,3.17
				c-1.18,1.25-1.99,2.79-2.82,4.29c-4.49,8.1-14.64,29.21-17.66,31.01c-8.1-3.7-16.63-11.16-22.51-17.85
				c-5.88-6.69-10.29-14.52-15.13-22c-4.85-7.47-10.37-14.72-17.77-19.68c7.15-4.01,9.91-5.68,15.17-11.96
				c1.45-1.73,2.83-3.56,3.8-5.6c1.17-2.46,1.73-5.15,2.35-7.8c2.22-9.53,7.37-15.76,15.34-21.43c-3.69-10.36-7.51-21.28-9.27-32.14
				c-1.62-9.99-4.47-19.98-6.08-29.98c-0.45-2.76-0.9-5.56-0.59-8.35c0.32-2.78,1.5-5.58,3.75-7.25c2.18-1.61,5.03-1.95,7.75-2.11
				c5.1-0.3,10.22-0.17,15.3,0.39c4.61,0.51,9.18,1.38,13.73,2.29c7.78,1.55,15.54,3.21,23.28,4.98
				c-1.61,7.13-3.22,14.25-4.82,21.37c-8.42-1.78-16.86-3.56-25.41-4.57c-2.51-0.3-5.22-0.57-7.46-0.22
				c6.65,14.57,14.66,29.09,23.9,42.35c1.72,2.46,3.47,4.88,5.27,7.25c2.12,2.79,5.39,5.47,8.75,6.49c1.68,0.51,3.48,0.32,5.23,0.12
				c6.67-0.76,13.36-1.53,19.97-2.7c3.97-0.7,7.9-1.54,11.79-2.62c10.36-2.87,20.41-7.46,28.35-14.7
				c-8.86-2.16-17.72-4.32-26.58-6.48c2.67-7.15,5.9-14.1,9.65-20.74c13.38,2.62,26.48,6.71,38.98,12.16
				c3.79,1.65,7.87,3.79,9.29,7.67C384.46,134.95,383.92,137.99,382.67,140.56z"/>
		</g>
		<g>
			<path class="st1" d="M312,156.98c-3.97,3.54-8.33,6.66-12.76,9.62c-9.84,6.57-21,12.66-32.79,11.65
				c0.24-11.07,2.39-22.08,6.33-32.43c1.72,2.46,3.47,4.88,5.27,7.25c2.12,2.79,5.39,5.47,8.75,6.49c1.68,0.51,3.48,0.32,5.23,0.12
				C298.71,158.91,305.4,158.15,312,156.98z"/>
			<g>
				<g>
					<path class="st1" d="M309.72,134.55c-1.33,2.31-2.74,4.57-4.21,6.79c-4.86,7.35-10.38,14.28-15.91,21.16
						c-0.24,0.3-0.49,0.61-0.83,0.78c-0.68,0.36-1.51,0.12-2.24-0.12c-1.39-0.47-2.79-0.94-4.18-1.4c-3.54-1.19-7.44-2.68-9.06-6.05
						c-0.11-0.23-0.21-0.47-0.2-0.72c0.01-0.3,0.18-0.58,0.35-0.83c2.46-3.85,4.9-7.71,7.33-11.59c1.14-1.81,2.27-3.63,3.4-5.45
						c1.02-1.64,2.03-3.28,3.04-4.92c1.15-1.87,3.06-7.08,5.56-7.3c2.77-0.24,6.89,2.24,9.2,3.57
						C302.76,128.93,310.19,133.74,309.72,134.55z"/>
					<path class="st8" d="M309.72,134.55c-1.33,2.31-2.74,4.57-4.21,6.79c-4.69,0.72-9.53,0.5-14.13-0.65
						c-2.49-0.63-4.99-1.56-6.9-3.28c-0.11-0.09-0.21-0.19-0.31-0.29c1.02-1.64,2.03-3.28,3.04-4.92c1.15-1.87,3.06-7.08,5.56-7.3
						c2.77-0.24,6.89,2.24,9.2,3.57C302.76,128.93,310.19,133.74,309.72,134.55z"/>
				</g>
				<path class="st9" d="M294.48,91.54c-1.84-0.5-2.93-2.38-3.11-4.19c-0.35-3.48,1.87-6.72,4.32-9.34
					c3.97-4.24,8.96-7.79,14.73-9.26c5.77-1.48,12.38-0.64,16.97,2.99c0.35,0.27,0.69,0.57,1.1,0.74c0.32,0.14,0.68,0.2,1.03,0.26
					c5.97,1.19,10.45,5.87,13.64,10.79c3.82,5.9,6.45,12.75,5.91,19.65c-0.52,6.57-3.81,12.61-7.03,18.45
					c-1.26,2.28-2.7,4.41-4.15,6.58c-1.46,2.19-2.93,4.39-3.99,6.78c-3.14,7.08-2.43,15.08-3.33,22.72
					c-0.14,1.22-0.35,2.49-1.12,3.48c1.05,1.91,0.66,4.14,0.44,6.28c-0.48,4.59-1.15,9.32-3.62,13.3
					c-4.25,6.84-13.62,10.14-21.79,8.35c-2.56,4.16-7.19,7.04-12.18,7.98c-4.99,0.94-10.28,0.04-14.81-2.16
					c-4.1-1.99-7.9-5.62-7.72-9.97c-2.04-0.79-3.84-2.13-5.14-3.81c-3.1-4.01-3.08-9.64-0.98-14.2c2.09-4.55,5.97-8.17,10.14-11.18
					c2.89-2.09,6.53-2.98,9.83-4.41c3.81-1.65,7.62-3.29,11.23-5.3c7.56-4.2,14.15-9.94,19.19-16.73
					c5.87-7.91,11.54-16.12,12.01-25.77c0.13-2.72-0.18-5.48-1.25-8.01c-1.6-3.76-4.93-6.83-8.94-8.26
					c-4.01-1.43-8.65-1.2-12.48,0.63C300.59,89.25,297.48,92.35,294.48,91.54z"/>
				<g>
					<path class="st1" d="M334.67,120.17c1.16,0.45,2.3,1.18,2.84,2.3c0.39,0.8,0.43,1.73,0.46,2.62c0.03,1.2,0.04,2.42-0.35,3.55
						c-0.55,1.58-1.86,2.81-3.35,3.56c-1.49,0.75-3.16,1.07-4.82,1.26c-2.81,0.32-5.66,0.27-8.45-0.14
						c-0.68-0.1-1.41-0.25-1.86-0.77c-0.41-0.47-0.48-1.15-0.47-1.77C318.74,123.53,328,117.58,334.67,120.17z"/>
					<g>
						<path class="st1" d="M307.11,78.96c-5.86,1.68-9.96,6.99-12.59,12.49c-2.2,4.61-3.65,9.55-5.94,14.12
							c-2.26,4.53-6.37,8.14-6.39,13.51c-0.01,2.87,0.87,5.68,2.12,8.27c4.07,8.43,11.38,10.26,20.1,10.16
							c3.53-0.04,7.12-0.08,10.56-0.92c3.79-0.92,5.75-2.87,7.94-6.02c3.94-5.64,7.76-11.45,10.1-17.92
							c2.34-6.47,3.1-13.72,0.86-20.22C330.26,81.92,317.8,75.9,307.11,78.96z"/>
						<g>
							<path class="st8" d="M306.03,105.06c-0.99,0.43-1.68,1.31-2.31,2.19c-1.51,2.11-2.86,4.39-3.48,6.91
								c-0.19,0.76-0.27,1.66,0.26,2.23c0.5,0.53,1.37,0.54,2.02,0.22c0.65-0.32,1.12-0.91,1.56-1.49c1.6-2.1,3.02-4.34,4.24-6.68
								C309.32,106.54,308.8,103.87,306.03,105.06z"/>
							<path class="st8" d="M295.31,108.18c1.4,1.11,2.01,3.16,1.32,4.81c-0.71,1.7-2.6,2.72-4.44,2.74
								c-0.9,0.01-1.81-0.19-2.57-0.67c-1.27-0.8-1.98-2.39-1.73-3.87C288.43,107.85,292.64,106.07,295.31,108.18z"/>
							<path class="st8" d="M317.27,119.57c1.4,1.11,2.01,3.16,1.32,4.81c-0.71,1.7-2.6,2.72-4.44,2.74
								c-0.9,0.01-1.81-0.19-2.57-0.67c-1.27-0.8-1.98-2.39-1.73-3.87C310.39,119.24,314.6,117.46,317.27,119.57z"/>
							<path class="st10" d="M304.69,123.78c-3.21,0.86-9.05,1.41-10.49-5.38c-0.19-0.89,0.69-1.64,1.55-1.32
								c2.22,0.83,6.07,2.44,9.28,4.62C305.86,122.25,305.66,123.53,304.69,123.78z"/>
							<path class="st9" d="M299.56,101.79c-0.67-1.01-2.52-1.8-3.54-0.89c-0.14,0.13-0.05,0.33,0.1,0.39
								c0.48,0.18,0.96,0.17,1.43,0.25c-1.21,0.4-2.07,1.76-1.74,3.02c0.02,0.11,0.04,0.21,0.07,0.31c0.27,0.82,1.14,1.27,1.97,1.04
								C299.46,105.46,300.52,103.25,299.56,101.79z"/>
							<path class="st9" d="M319.39,112.61c0.03-0.81-0.74-1.64-1.38-2.04c-0.54-0.34-2.33-1.04-2.71-0.18
								c-0.02,0.06-0.02,0.11,0.02,0.15c0.16,0.18,0.27,0.17,0.5,0.2c0.33,0.04,0.66,0.08,0.97,0.18c-0.61,0.25-1.16,0.57-1.52,1.17
								c-0.5,0.86-0.36,2.02,0.35,2.72c0.82,0.81,2.19,0.82,2.99-0.03c0.52-0.55,0.82-1.35,0.78-2.11
								C319.4,112.65,319.4,112.63,319.39,112.61z"/>
							<path class="st9" d="M304.01,98.75c-1.2-2.27-3.93-3.76-6.49-3.52c-0.96,0.09-1.25,1.45-0.24,1.75
								c2.01,0.58,3.95,0.8,5.25,2.64C303.16,100.51,304.54,99.74,304.01,98.75z"/>
							<path class="st9" d="M323.53,109.32c-1.2-2.27-3.93-3.76-6.49-3.52c-0.96,0.09-1.25,1.45-0.24,1.75
								c2.01,0.58,3.95,0.8,5.25,2.64C322.68,111.08,324.06,110.31,323.53,109.32z"/>
						</g>
						<path class="st9" d="M302.36,91.65c-0.76,0.75-0.4,2.14,0.45,2.78s2,0.71,3.06,0.68c4.35-0.1,8.71-1.44,12.2-4.04
							c-0.32,3.67-0.64,7.44,0.35,11c0.18,0.63,0.41,1.27,0.87,1.73c0.96,0.94,2.64,0.74,3.71-0.08c1.07-0.82,1.69-2.09,2.26-3.31
							c-0.26,2.81-0.41,5.75,0.69,8.35c1.09,2.6,3.78,4.75,6.57,4.31c1.94-0.3,3.53-1.76,4.59-3.42c2.81-4.4,2.53-10.07,1.62-15.21
							c-0.68-3.83-1.69-7.71-3.96-10.87c-1.74-2.42-4.14-4.31-6.72-5.82c-6.27-3.69-13.95-5.29-20.99-3.45
							c-4.97,1.3-9.5,4.43-12.36,8.71c-1.51,2.26-5.37,8.56-1.47,10.41C295.94,94.69,300.07,93.16,302.36,91.65z"/>
					</g>
				</g>
			</g>
		</g>
	</g>
</g>
<path class="st5" d="M152.4,398.33c-0.02,0.05-0.04,0.09-0.06,0.14c-0.34,0.78-0.68,1.56-1.1,2.3c-0.75-0.12-1.48-0.27-2.19-0.43
	c-3.03-0.67-6.01-1.62-8.9-2.75c-2.75-1.08-5.47-2.3-8.05-3.75c-1.09-0.61-2.25-1.25-3.38-1.96c0.02-0.07,0.05-0.13,0.08-0.2
	c0.26-0.67,0.52-1.34,0.78-2c0.82,0.49,1.63,0.98,2.46,1.43c2.63,1.41,5.33,2.71,8.11,3.79c2.66,1.03,5.38,1.92,8.15,2.62
	C149.66,397.87,151.02,398.18,152.4,398.33z"/>
<path class="st5" d="M158.48,381.8c-0.29,0.95-0.59,1.9-0.9,2.85c-0.76,0-1.5-0.04-2.22-0.06c-2.87-0.11-5.74-0.49-8.54-1.1
	c-2.81-0.61-5.54-1.52-8.17-2.64c-1.39-0.59-2.96-1.25-4.37-2.09c0.38-0.83,0.77-1.66,1.16-2.48c1.44,0.71,2.84,1.55,4.25,2.12
	c2.54,1.05,5.19,1.85,7.87,2.44c2.79,0.61,5.64,0.96,8.5,1.03C156.85,381.88,157.66,381.85,158.48,381.8z"/>
<g>
	<g>
		<g>
			<path class="st9" d="M379.91,262.63c-2.92-3.74-5.92-7.63-7.12-12.22c-0.55-2.09-0.62-4.54,0.8-6.17
				c2.14-2.44,6.06-1.58,9.13-0.52c-3.58-2.93-7.2-5.88-10.14-9.46c-2.94-3.57-5.2-7.86-5.64-12.46c-0.12-1.21-0.09-2.48,0.48-3.56
				c0.78-1.47,2.47-2.28,4.14-2.44c1.66-0.16,3.32,0.23,4.94,0.62c-5.99-4.07-10.12-10.76-11.09-17.94
				c-0.24-1.78-0.21-3.8,1.04-5.08c1.86-1.89,5.02-0.98,7.47,0.05c-4.71-7.12-7.26-15.64-7.24-24.17c0.01-2.6,0.26-5.25,1.32-7.62
				c1.06-2.37,3.05-4.43,5.56-5.07c4.31-1.09,8.5,2.16,11.22,5.68c5.49,7.11,8.17,15.93,10.74,24.54c-0.11-1.91,1.79-3.55,3.71-3.54
				s3.65,1.32,4.61,2.98c0.96,1.66,1.28,3.61,1.44,5.51c0.5,6.12-0.49,12.25-1.46,18.32c0.71-2.48,4.59-2.61,6.32-0.69
				c1.73,1.91,1.84,4.76,1.69,7.34c-0.39,6.62-1.89,13.23-4.96,19.1c2.38-0.93,5.21-1.82,7.36-0.45c2.27,1.44,2.55,4.6,2.4,7.29
				c-0.53,9.24-3.49,18.34-8.51,26.12c-2.91,4.52-8.48,10.41-14.21,7.43C388.09,273.2,383.86,267.68,379.91,262.63z"/>
			<path class="st6" d="M409.93,241.45c-0.09-0.36-0.52-0.56-0.79-0.24c-1.11,1.3-1.44,3.44-2.11,5.01
				c-0.76,1.79-1.68,3.51-2.7,5.17c-1.9,3.08-4.27,5.81-7.01,8.16c-0.13-1.68-0.27-3.36-0.42-5.04c-0.56-6.25-1.26-12.49-2.11-18.71
				c0.02-0.02,0.04-0.03,0.07-0.05c2.86-2.74,5.37-5.84,7.37-9.26c0.97-1.66,1.85-3.41,2.54-5.21c0.57-1.48,1.33-3.25,0.93-4.84
				c-0.05-0.18-0.34-0.27-0.48-0.14c-1.1,1-1.53,2.54-2.14,3.87c-0.81,1.77-1.65,3.49-2.65,5.16c-1.71,2.85-3.72,5.47-6.02,7.86
				c-0.98-6.78-2.16-13.54-3.56-20.25c0.03-0.04,0.07-0.07,0.1-0.11c2.37-3.27,4.32-6.85,5.6-10.68c0.59-1.76,1.06-3.55,1.4-5.37
				c0.33-1.74,0.85-3.9,0.27-5.62c-0.16-0.48-0.85-0.46-1.05-0.03c-0.68,1.41-0.66,3.19-0.95,4.72c-0.37,1.96-0.89,3.9-1.56,5.78
				c-1.11,3.08-2.56,6-4.36,8.71c-0.71-3.26-1.47-6.5-2.29-9.73c-2.57-10.1-5.68-20.1-9.69-29.73c-0.38-0.92-1.79-0.39-1.45,0.56
				c4.55,12.88,8.39,25.93,11.33,39.23c-2.84-1.44-5.58-3.04-8.18-4.9c-1.42-1.02-2.79-2.11-4.14-3.22
				c-1.26-1.04-2.47-2.57-4.02-3.13c-0.58-0.21-1.21,0.29-0.98,0.92c0.56,1.54,2.12,2.69,3.3,3.77c1.46,1.33,3.01,2.54,4.61,3.69
				c3.1,2.22,6.41,4.19,9.88,5.79c0.06,0.03,0.12,0.04,0.17,0.06c0.77,3.66,1.48,7.34,2.1,11.03c0.46,2.68,0.88,5.37,1.27,8.07
				c-3.17-0.96-6.19-2.03-9.06-3.75c-3.09-1.85-5.53-4.31-8.31-6.55c-0.63-0.51-1.36,0.28-0.98,0.92c1.84,3.12,5.08,5.58,8.12,7.45
				c3.19,1.95,6.85,3.59,10.56,4.2c1.17,8.36,2.04,16.77,2.68,25.19c-2.75-1.29-5.37-2.75-7.86-4.56c-1.43-1.04-2.79-2.19-4.11-3.37
				c-1.11-1.01-2.11-2.4-3.58-2.82c-0.28-0.08-0.55,0.22-0.52,0.48c0.19,1.53,1.53,2.67,2.55,3.74c1.37,1.43,2.88,2.73,4.46,3.92
				c2.81,2.13,5.96,3.96,9.25,5.26c0.37,5.24,0.65,10.48,0.86,15.72c0.2,5.07,0.33,10.13,0.4,15.2c0.07,5.25-0.34,10.67,0.26,15.88
				c0.11,0.96,1.61,1.07,1.74,0.07c0.57-4.47,0.25-9.13,0.2-13.62c-0.05-4.58-0.15-9.17-0.3-13.75c-0.22-6.51-0.54-13.02-1-19.52
				c0.22-0.27,0.34-0.61,0.29-0.94c3.12-2.56,5.81-5.57,7.96-9c1.16-1.86,2.13-3.82,2.91-5.87
				C409.32,245.4,410.33,243.16,409.93,241.45z"/>
		</g>
		<g>
			<path class="st7" d="M430.93,273.45c3.41-3.31,6.9-6.75,8.72-11.13c0.83-2,1.24-4.42,0.05-6.22c-1.78-2.71-5.79-2.4-8.97-1.76
				c3.95-2.41,7.93-4.84,11.33-7.98c3.4-3.14,6.23-7.07,7.3-11.57c0.28-1.18,0.43-2.45,0.02-3.59c-0.57-1.57-2.14-2.6-3.76-2.98
				c-1.62-0.38-3.32-0.22-4.98-0.06c6.49-3.21,11.5-9.27,13.44-16.25c0.48-1.73,0.73-3.73-0.34-5.17c-1.58-2.13-4.84-1.66-7.41-0.97
				c5.64-6.41,9.33-14.5,10.49-22.95c0.35-2.57,0.46-5.23-0.26-7.73c-0.73-2.49-2.41-4.81-4.82-5.78
				c-4.12-1.67-8.72,0.98-11.89,4.09c-6.41,6.29-10.27,14.66-14,22.84c0.38-1.88-1.29-3.76-3.19-4.02c-1.9-0.26-3.79,0.81-4.98,2.32
				c-1.18,1.51-1.76,3.4-2.18,5.27c-1.33,5.99-1.2,12.2-1.06,18.34c-0.36-2.56-4.19-3.21-6.17-1.55c-1.98,1.66-2.48,4.47-2.68,7.04
				c-0.52,6.61,0.06,13.36,2.29,19.6c-2.23-1.25-4.91-2.52-7.23-1.45c-2.44,1.12-3.16,4.21-3.37,6.89
				c-0.74,9.23,0.95,18.64,4.86,27.04c2.27,4.87,6.97,11.47,13.06,9.3C421.38,282.8,426.33,277.91,430.93,273.45z"/>
			<path class="st6" d="M404.1,248.36c0.13-0.35,0.59-0.49,0.82-0.13c0.92,1.44,0.96,3.6,1.41,5.25c0.51,1.88,1.18,3.71,1.97,5.49
				c1.46,3.31,3.44,6.34,5.83,9.04c0.36-1.65,0.73-3.3,1.11-4.94c1.41-6.11,2.96-12.2,4.65-18.25c-0.02-0.02-0.04-0.04-0.06-0.06
				c-2.46-3.11-4.52-6.52-6.04-10.18c-0.73-1.78-1.36-3.63-1.8-5.51c-0.36-1.55-0.87-3.4-0.26-4.92c0.07-0.18,0.37-0.22,0.49-0.08
				c0.95,1.14,1.17,2.73,1.59,4.13c0.56,1.86,1.16,3.69,1.92,5.47c1.3,3.06,2.94,5.93,4.89,8.61c1.9-6.59,3.99-13.12,6.3-19.57
				c-0.03-0.04-0.06-0.08-0.08-0.13c-1.9-3.56-3.34-7.37-4.08-11.35c-0.34-1.82-0.57-3.66-0.66-5.51c-0.09-1.77-0.31-3.98,0.5-5.61
				c0.23-0.45,0.9-0.34,1.05,0.11c0.48,1.49,0.22,3.25,0.29,4.81c0.1,1.99,0.35,3.98,0.76,5.94c0.68,3.21,1.71,6.29,3.13,9.23
				c1.15-3.13,2.35-6.24,3.6-9.32c3.93-9.66,8.38-19.13,13.67-28.12c0.51-0.86,1.83-0.14,1.36,0.75
				c-6.27,12.13-11.86,24.54-16.59,37.31c3.01-1.04,5.95-2.25,8.77-3.74c1.55-0.82,3.06-1.71,4.55-2.63c1.39-0.86,2.8-2.2,4.41-2.55
				c0.61-0.13,1.15,0.46,0.85,1.04c-0.76,1.45-2.47,2.38-3.79,3.28c-1.62,1.11-3.33,2.11-5.07,3.03c-3.38,1.78-6.92,3.27-10.58,4.38
				c-0.06,0.02-0.12,0.03-0.18,0.04c-1.26,3.52-2.47,7.06-3.6,10.64c-0.82,2.6-1.6,5.2-2.36,7.82c3.27-0.51,6.41-1.16,9.49-2.47
				c3.31-1.41,6.07-3.51,9.13-5.35c0.69-0.42,1.31,0.46,0.85,1.05c-2.25,2.83-5.79,4.84-9.06,6.27c-3.42,1.49-7.28,2.62-11.04,2.72
				c-2.3,8.13-4.32,16.33-6.1,24.59c2.9-0.9,5.7-1.99,8.41-3.44c1.56-0.84,3.06-1.78,4.53-2.78c1.24-0.85,2.41-2.09,3.94-2.31
				c0.29-0.04,0.52,0.29,0.45,0.55c-0.4,1.49-1.88,2.43-3.04,3.35c-1.56,1.23-3.23,2.31-4.96,3.28c-3.07,1.72-6.44,3.1-9.88,3.95
				c-1.08,5.14-2.08,10.29-3,15.46c-0.89,4.99-1.71,9.99-2.48,15c-0.79,5.19-1.13,10.61-2.43,15.7c-0.24,0.93-1.74,0.84-1.73-0.17
				c0.04-4.51,1-9.07,1.67-13.52c0.68-4.53,1.4-9.06,2.18-13.58c1.1-6.42,2.32-12.82,3.67-19.2c-0.19-0.29-0.25-0.65-0.16-0.97
				c-2.74-2.97-5-6.31-6.65-10c-0.9-2-1.59-4.08-2.08-6.22C404.16,252.36,403.46,250,404.1,248.36z"/>
		</g>
		<path class="st11" d="M428.74,288.68c0,0-0.17,4.48-0.57,11.88c-0.07,1.31-0.15,2.7-0.23,4.18c-0.39,6.95-0.95,15.71-1.69,25.42
			c-0.11,1.41-0.22,2.83-0.34,4.28c-0.61,7.5-1.32,15.47-2.16,23.52c-0.15,1.43-0.3,2.87-0.46,4.3c-0.98,8.89-2.11,17.8-3.42,26.23
			c-0.22,1.46-0.46,2.91-0.69,4.34c-1.14,6.86-2.4,13.33-3.79,19.11c0,0-13.36,4.96-29,0c0,0-1.17-8.38-2.65-21.28
			c-0.15-1.29-0.3-2.63-0.45-4.01c-0.8-7.15-1.66-15.41-2.45-24.24c-0.12-1.35-0.24-2.72-0.37-4.1c-0.68-7.94-1.31-16.26-1.8-24.59
			c-0.08-1.37-0.16-2.73-0.23-4.1c-0.42-8.01-0.7-15.97-0.76-23.57c-0.01-1.12-0.01-2.24-0.01-3.34c0-4.89,0.11-9.6,0.32-14.03
			c0,0,7.88-0.63,18.56-0.89c0.71-0.02,1.43-0.04,2.16-0.05c3.64-0.07,7.54-0.09,11.53-0.04c0.72,0.01,1.46,0.02,2.18,0.04
			C417.91,287.86,423.51,288.14,428.74,288.68z"/>
	</g>
	<path class="st1" d="M428.17,300.57c-0.07,1.31-0.15,2.7-0.23,4.18c-2.31,0.33-4.64,0.62-6.96,0.87c-3.83,0.4-7.67,0.68-11.51,0.85
		c-0.76,0.04-1.53,0.07-2.3,0.09c-1.62,0.06-3.24,0.09-4.86,0.12c-1.13,0.02-2.26,0.02-3.4,0.03c-0.74,0-1.49,0.01-2.23,0
		c-6.34-0.01-12.69-0.19-19.01-0.65c-0.01-1.12-0.01-2.24-0.01-3.34c6.3,0,12.62,0.14,18.93,0.1c0.8,0,1.6-0.02,2.4-0.03
		c0.98-0.01,1.96-0.03,2.94-0.06c1.96-0.05,3.92-0.13,5.88-0.22c0.74-0.03,1.47-0.07,2.21-0.11c3.4-0.19,6.8-0.46,10.19-0.81
		C422.87,301.31,425.53,300.97,428.17,300.57z"/>
	<path class="st1" d="M426.25,330.17c-0.11,1.41-0.22,2.83-0.34,4.28c-1.64,0.18-3.29,0.34-4.94,0.47
		c-6.47,0.52-12.97,0.64-19.45,0.48c-6.51-0.16-13.03-0.56-19.5-1.28c-1.12-0.13-2.23-0.26-3.35-0.39c-0.08-1.37-0.16-2.73-0.23-4.1
		c1.32,0.13,2.64,0.25,3.97,0.36c6.23,0.52,12.46,1.01,18.72,1.18c6.36,0.16,12.73,0.05,19.07-0.43
		C422.22,330.58,424.24,330.4,426.25,330.17z"/>
	<path class="st1" d="M423.75,357.97c-0.15,1.43-0.3,2.87-0.46,4.3c-1.09,0.14-2.17,0.26-3.26,0.38c-6.43,0.68-12.9,1.04-19.36,1
		c-6.47-0.04-12.93-0.44-19.35-1.18c-0.16-0.02-0.32-0.04-0.48-0.06c-0.12-1.35-0.24-2.72-0.37-4.1c0.54,0.06,1.08,0.11,1.62,0.17
		c6.17,0.63,12.38,0.94,18.58,0.92c6.21-0.01,12.41-0.29,18.59-0.92C420.76,358.33,422.25,358.16,423.75,357.97z"/>
	<path class="st1" d="M419.87,388.5c-0.22,1.46-0.46,2.91-0.69,4.34c-0.22,0.01-0.43,0.02-0.64,0.02
		c-5.47,0.15-10.95,0.01-16.41-0.3c-5.56-0.32-11.12-0.81-16.63-1.63c-0.59-0.09-1.17-0.17-1.76-0.27c-0.15-1.29-0.3-2.63-0.45-4.01
		c1.04,0.13,2.09,0.26,3.13,0.37c5.23,0.55,10.45,1.07,15.7,1.33c5.34,0.27,10.69,0.37,16.04,0.21
		C418.72,388.55,419.3,388.53,419.87,388.5z"/>
</g>
</svg>
